{
  "accessors": [
    {
      "bufferView": 2,
      "componentType": 5126,
      "count": 15043,
      "max": [
        108.60333251953125,
        42.740638732910156,
        42.617069244384766
      ],
      "min": [
        -108.60333251953125,
        -45.557342529296875,
        -373.2224426269531
      ],
      "type": "VEC3"
    },
    {
      "bufferView": 2,
      "byteOffset": 180516,
      "componentType": 5126,
      "count": 15043,
      "max": [
        1.0,
        1.0,
        1.0
      ],
      "min": [
        -1.0,
        -1.0,
        -1.0
      ],
      "type": "VEC3"
    },
    {
      "bufferView": 3,
      "componentType": 5126,
      "count": 15043,
      "max": [
        1.0,
        1.0,
        1.0,
        1.0
      ],
      "min": [
        -1.0,
        -1.0,
        -1.0,
        -1.0
      ],
      "type": "VEC4"
    },
    {
      "bufferView": 1,
      "componentType": 5126,
      "count": 15043,
      "max": [
        0.9969836473464966,
        0.997117817401886
      ],
      "min": [
        0.002904077060520649,
        0.002925307024270296
      ],
      "type": "VEC2"
    },
    {
      "bufferView": 1,
      "byteOffset": 120344,
      "componentType": 5126,
      "count": 15043,
      "max": [
        0.9969836473464966,
        0.997117817401886
      ],
      "min": [
        0.002904077060520649,
        0.002925307024270296
      ],
      "type": "VEC2"
    },
    {
      "bufferView": 1,
      "byteOffset": 240688,
      "componentType": 5126,
      "count": 15043,
      "max": [
        0.9969836473464966,
        0.997117817401886
      ],
      "min": [
        0.002904077060520649,
        0.002925307024270296
      ],
      "type": "VEC2"
    },
    {
      "bufferView": 0,
      "componentType": 5125,
      "count": 57846,
      "type": "SCALAR"
    }
  ],
  "asset": {
    "extras": {
      "author": "Dmitriy Mitroshin (https://sketchfab.com/LtxxwSibeRia)",
      "license": "CC-BY-NC-4.0 (http://creativecommons.org/licenses/by-nc/4.0/)",
      "source": "https://sketchfab.com/3d-models/russian-x-555-air-launched-cruise-missile-204c992ab27c4c1cad6a60b7c20b8c01",
      "title": "Russian X-555 air-launched cruise missile"
    },
    "generator": "Sketchfab-14.87.0",
    "version": "2.0"
  },
  "bufferViews": [
    {
      "buffer": 0,
      "byteLength": 231384,
      "name": "floatBufferViews",
      "target": 34963
    },
    {
      "buffer": 0,
      "byteLength": 361032,
      "byteOffset": 231384,
      "byteStride": 8,
      "name": "floatBufferViews",
      "target": 34962
    },
    {
      "buffer": 0,
      "byteLength": 361032,
      "byteOffset": 592416,
      "byteStride": 12,
      "name": "floatBufferViews",
      "target": 34962
    },
    {
      "buffer": 0,
      "byteLength": 240688,
      "byteOffset": 953448,
      "byteStride": 16,
      "name": "floatBufferViews",
      "target": 34962
    }
  ],
  "buffers": [
    {
      "byteLength": 1194136,
      "uri": "scene.bin"
    }
  ],
  "extensionsUsed": [
    "KHR_materials_specular"
  ],
  "images": [
    {
      "uri": "textures/HA-555_baseColor.png"
    },
    {
      "uri": "textures/HA-555_metallicRoughness.png"
    },
    {
      "uri": "textures/HA-555_normal.png"
    }
  ],
  "materials": [
    {
      "doubleSided": true,
      "extensions": {
        "KHR_materials_specular": {
          "specularColorFactor": [
            1.0,
            1.0,
            1.0
          ],
          "specularFactor": 0.41
        }
      },
      "name": "HA-555",
      "normalTexture": {
        "index": 2
      },
      "occlusionTexture": {
        "index": 1
      },
      "pbrMetallicRoughness": {
        "baseColorTexture": {
          "index": 0
        },
        "metallicRoughnessTexture": {
          "index": 1
        },
        "roughnessFactor": 0.93
      }
    }
  ],
  "meshes": [
    {
      "name": "X-555 (Final)_HA-555_0",
      "primitives": [
        {
          "attributes": {
            "NORMAL": 1,
            "POSITION": 0,
            "TANGENT": 2,
            "TEXCOORD_0": 3,
            "TEXCOORD_1": 4,
            "TEXCOORD_2": 5
          },
          "indices": 6,
          "material": 0,
          "mode": 4
        }
      ]
    }
  ],
  "nodes": [
    {
      "children": [
        1
      ],
      "matrix": [
        1.0,
        0.0,
        0.0,
        0.0,
        0.0,
        2.220446049250313e-16,
        -1.0,
        0.0,
        0.0,
        1.0,
        2.220446049250313e-16,
        0.0,
        0.0,
        0.0,
        0.0,
        1.0
      ],
      "name": "Sketchfab_model"
    },
    {
      "children": [
        2
      ],
      "matrix": [
        0.009999999776482582,
        0.0,
        0.0,
        0.0,
        0.0,
        0.0,
        0.009999999776482582,
        0.0,
        0.0,
        -0.009999999776482582,
        0.0,
        0.0,
        0.0,
        0.0,
        0.0,
        1.0
      ],
      "name": "x-555.fbx"
    },
    {
      "children": [
        3
      ],
      "name": "RootNode"
    },
    {
      "children": [
        4
      ],
      "name": "X-555 (Final)"
    },
    {
      "mesh": 0,
      "name": "X-555 (Final)_HA-555_0"
    }
  ],
  "samplers": [
    {
      "magFilter": 9729,
      "minFilter": 9987,
      "wrapS": 10497,
      "wrapT": 10497
    }
  ],
  "scene": 0,
  "scenes": [
    {
      "name": "Sketchfab_Scene",
      "nodes": [
        0
      ]
    }
  ],
  "textures": [
    {
      "sampler": 0,
      "source": 0
    },
    {
      "sampler": 0,
      "source": 1
    },
    {
      "sampler": 0,
      "source": 2
    }
  ]
}
